<?xml version="1.0" standalone="no"?>
<!DOCTYPE svg PUBLIC "-//W3C//DTD SVG 20010904//EN"
 "http://www.w3.org/TR/2001/REC-SVG-20010904/DTD/svg10.dtd">
<svg version="1.0" xmlns="http://www.w3.org/2000/svg"
 width="260.000000pt" height="260.000000pt" viewBox="0 0 260.000000 260.000000"
 preserveAspectRatio="xMidYMid meet">

<g transform="translate(0.000000,260.000000) scale(0.100000,-0.100000)"
fill="#000000" stroke="none">
<path d="M1251 2045 c1 -68 5 -85 17 -85 10 0 13 7 8 23 -3 12 -6 50 -6 85 0
36 -4 62 -11 62 -6 0 -9 -31 -8 -85z"/>
<path d="M1310 2121 c0 -5 3 -12 8 -14 4 -3 18 -37 32 -76 13 -39 30 -73 37
-75 14 -6 18 16 6 28 -4 4 -20 37 -34 74 -23 59 -49 92 -49 63z"/>
<path d="M1450 2078 c-6 -24 -15 -59 -21 -78 -11 -44 -11 -50 0 -50 5 0 17 30
26 68 9 37 19 72 21 79 2 7 -1 15 -6 18 -5 3 -14 -14 -20 -37z"/>
<path d="M1100 2104 c0 -9 86 -117 110 -139 37 -32 19 1 -40 75 -49 62 -70 81
-70 64z"/>
<path d="M1544 2063 c-3 -16 -12 -50 -20 -77 -14 -49 -12 -69 5 -50 7 7 41
131 41 149 0 3 -4 5 -10 5 -5 0 -12 -12 -16 -27z"/>
<path d="M1401 2054 c0 -11 3 -14 6 -6 3 7 2 16 -1 19 -3 4 -6 -2 -5 -13z"/>
<path d="M899 2035 c-8 -8 113 -135 123 -129 5 3 -17 33 -48 67 -59 64 -67 71
-75 62z"/>
<path d="M1710 1978 c0 -35 -7 -64 -20 -85 -10 -18 -15 -35 -11 -38 5 -3 18 9
28 26 22 33 32 149 14 149 -7 0 -11 -22 -11 -52z"/>
<path d="M519 1953 c-13 -16 -12 -17 4 -4 9 7 17 15 17 17 0 8 -8 3 -21 -13z"/>
<path d="M806 1934 c37 -18 59 -55 56 -92 -1 -21 0 -24 8 -12 18 27 10 61 -19
91 -16 16 -40 29 -53 29 -21 0 -20 -2 8 -16z"/>
<path d="M1807 1868 c-31 -35 -51 -65 -45 -67 10 -3 117 106 118 122 1 19 -23
1 -73 -55z"/>
<path d="M1915 1910 c3 -5 8 -10 11 -10 2 0 4 5 4 10 0 6 -5 10 -11 10 -5 0
-7 -4 -4 -10z"/>
<path d="M721 1880 c-1 -20 6 -45 14 -57 17 -24 72 -47 80 -32 4 5 -2 9 -13 9
-26 0 -63 42 -72 82 l-8 33 -1 -35z"/>
<path d="M647 1843 c-6 -11 122 -117 130 -109 7 7 -105 115 -119 116 -4 0 -9
-3 -11 -7z"/>
<path d="M1910 1781 c-30 -27 -51 -53 -47 -57 4 -5 11 -4 15 2 4 5 30 28 59
50 45 36 57 54 34 54 -3 0 -31 -22 -61 -49z"/>
<path d="M586 1772 c-6 -10 109 -112 125 -112 16 0 10 10 -23 39 -77 67 -97
81 -102 73z"/>
<path d="M1243 1762 c-6 -4 11 -8 39 -9 58 -1 88 -23 88 -64 0 -15 5 -29 12
-31 7 -3 3 -15 -12 -35 -14 -20 -21 -40 -17 -52 3 -12 0 -21 -6 -21 -7 0 -23
-3 -37 -6 -18 -4 -21 -3 -11 4 10 7 11 14 2 28 -8 15 -10 16 -11 3 0 -8 -7
-24 -16 -35 -14 -18 -15 -18 -8 6 6 22 5 23 -9 11 -23 -19 -43 -8 -62 33 -10
20 -25 36 -34 36 -9 0 -29 7 -45 15 -15 8 -36 15 -45 15 -9 0 4 -9 28 -20 24
-11 49 -20 56 -20 7 0 25 -20 38 -45 l25 -45 -31 -25 c-30 -23 -31 -25 -9 -25
13 0 20 -4 17 -10 -8 -14 -72 -13 -81 1 -4 8 1 9 17 5 13 -4 1 7 -27 24 -29
17 -56 36 -62 43 -16 20 -24 74 -13 82 6 3 11 -1 11 -10 0 -19 53 -75 71 -75
6 0 0 9 -15 21 -31 24 -58 73 -48 85 4 5 -3 0 -15 -10 -13 -11 -23 -30 -23
-44 0 -23 43 -73 85 -99 17 -10 17 -12 3 -12 -9 -1 -31 11 -50 26 l-33 27 35
-37 c41 -45 101 -65 137 -46 26 14 45 4 23 -12 -12 -9 -12 -10 3 -5 10 3 21 6
23 6 3 0 2 5 -2 12 -5 7 -3 8 5 4 7 -5 10 -14 8 -20 -3 -7 -1 -19 5 -27 8 -11
9 -11 5 3 -7 20 32 33 39 13 4 -11 12 -11 32 -4 17 7 28 7 30 1 2 -6 12 -8 23
-5 11 3 29 -2 41 -13 21 -19 21 -19 7 4 -8 12 -20 22 -27 22 -7 0 -10 4 -7 10
4 6 -1 7 -12 4 -14 -4 -12 -1 6 15 15 14 38 21 65 22 38 1 39 1 13 9 -16 5
-36 6 -45 3 -10 -3 -7 4 8 16 30 25 20 28 -16 5 -23 -16 -26 -16 -38 2 -18 24
-12 38 35 68 21 15 39 29 39 32 0 3 -12 -3 -27 -14 -45 -31 -49 -32 -50 -12
-2 26 50 80 77 80 12 0 30 4 40 10 15 8 23 5 39 -17 12 -14 24 -24 27 -20 11
11 -40 58 -56 51 -8 -3 -28 -10 -45 -14 -16 -4 -38 -11 -47 -15 -14 -6 -18 -2
-18 18 0 36 -29 67 -75 77 -49 12 -57 12 -72 2z m46 -237 c10 3 30 -4 47 -17
l29 -23 -18 28 c-18 27 -17 27 1 16 11 -7 19 -22 18 -38 -1 -22 -5 -26 -29
-24 -15 1 -25 -2 -22 -8 8 -12 -31 -12 -54 1 -13 6 -17 17 -14 35 3 15 1 25
-6 25 -6 0 -11 5 -11 10 0 7 7 7 20 0 12 -6 29 -9 39 -5z m-58 -47 c-11 -10
-13 -10 -7 0 4 6 2 12 -4 12 -6 0 -8 5 -4 11 4 8 9 8 17 0 8 -8 7 -14 -2 -23z"/>
<path d="M1193 1728 c-35 -38 -35 -60 -3 -98 16 -19 30 -30 30 -24 0 6 -9 19
-20 29 -26 23 -25 55 1 89 25 32 20 34 -8 4z"/>
<path d="M1966 1705 c-34 -26 -52 -45 -42 -45 18 0 116 69 116 82 0 15 -15 7
-74 -37z"/>
<path d="M1290 1720 c6 -11 13 -20 16 -20 2 0 0 9 -6 20 -6 11 -13 20 -16 20
-2 0 0 -9 6 -20z"/>
<path d="M1240 1656 c0 -14 5 -26 10 -26 6 0 10 9 10 19 0 11 -4 23 -10 26 -6
4 -10 -5 -10 -19z"/>
<path d="M1455 1596 c-54 -53 -43 -56 21 -6 18 15 49 60 42 63 -2 1 -30 -24
-63 -57z"/>
<path d="M1389 1603 c-13 -16 -12 -17 4 -4 9 7 17 15 17 17 0 8 -8 3 -21 -13z"/>
<path d="M1550 1594 c0 -8 5 -12 10 -9 6 3 10 10 10 16 0 5 -4 9 -10 9 -5 0
-10 -7 -10 -16z"/>
<path d="M1245 1590 c3 -5 8 -10 11 -10 2 0 4 5 4 10 0 6 -5 10 -11 10 -5 0
-7 -4 -4 -10z"/>
<path d="M1526 1549 c-11 -10 -27 -19 -37 -19 -9 0 -22 -6 -28 -14 -10 -12 -5
-11 31 1 41 14 43 14 60 -7 10 -12 18 -18 18 -12 0 5 -7 15 -15 22 -9 7 -13
21 -10 31 8 23 5 23 -19 -2z"/>
<path d="M1140 1532 c8 -2 23 -9 34 -14 12 -7 16 -7 12 0 -3 6 -1 12 5 14 7 2
-6 4 -27 5 -21 0 -32 -2 -24 -5z"/>
<path d="M1506 1488 c-8 -12 -13 -26 -9 -31 3 -5 -1 -13 -8 -18 -11 -7 -9 -9
6 -9 15 0 16 -3 7 -12 -7 -7 -12 -16 -12 -22 0 -6 5 -5 12 2 7 7 11 28 10 48
-2 25 3 40 15 50 10 7 13 14 6 14 -6 0 -19 -10 -27 -22z"/>
<path d="M1027 1443 c-6 -31 10 -72 33 -84 106 -54 140 -61 175 -35 18 13 16
15 -27 21 -34 5 -52 14 -63 31 -8 13 -20 24 -26 24 -6 0 -1 -13 11 -30 16 -22
29 -30 53 -30 28 -1 30 -2 13 -11 -14 -9 -28 -7 -61 10 -23 11 -47 21 -52 21
-19 0 -43 37 -43 65 0 23 2 26 15 15 8 -7 15 -18 15 -25 0 -7 7 -18 15 -25 18
-15 20 1 3 18 -10 10 -10 15 2 22 13 8 12 10 -3 10 -10 0 -15 5 -12 10 3 6 2
10 -4 10 -5 0 -16 3 -24 6 -10 3 -16 -4 -20 -23z"/>
<path d="M1450 1466 c0 -2 7 -6 15 -10 8 -3 15 -1 15 4 0 6 -7 10 -15 10 -8 0
-15 -2 -15 -4z"/>
<path d="M1525 1406 c-31 -40 -45 -45 -45 -16 0 13 -6 20 -17 19 -11 0 -13 -3
-5 -6 16 -6 15 -45 -3 -69 -8 -10 -15 -15 -15 -11 0 5 -12 -1 -26 -12 -32 -25
-59 -28 -50 -6 5 13 2 14 -15 5 -27 -15 -71 -9 -77 10 -4 12 -2 13 9 3 7 -7
17 -13 23 -13 5 0 1 6 -9 14 -16 12 -18 18 -7 40 6 14 9 33 5 42 -12 33 -34
-61 -24 -107 0 -4 27 -9 59 -11 64 -6 105 10 157 60 45 44 77 83 72 89 -3 2
-17 -12 -32 -31z"/>
<path d="M1399 1353 c-13 -16 -12 -17 4 -4 9 7 17 15 17 17 0 8 -8 3 -21 -13z"/>
<path d="M1329 1323 c-13 -16 -12 -17 4 -4 9 7 17 15 17 17 0 8 -8 3 -21 -13z"/>
<path d="M480 1297 c0 -9 -8 -21 -17 -26 -11 -6 -13 -11 -5 -11 7 0 16 -9 20
-19 7 -19 8 -19 27 2 l20 22 -22 24 c-18 19 -23 20 -23 8z"/>
<path d="M2090 1296 c0 -7 -10 -18 -22 -24 -19 -9 -20 -11 -5 -11 10 -1 21 -9
25 -18 7 -17 8 -17 27 2 l20 20 -22 22 c-14 14 -23 17 -23 9z"/>
<path d="M1040 1284 c0 -10 23 -34 64 -64 18 -14 19 -13 13 3 -4 9 -2 17 5 17
7 0 6 5 -2 15 -7 8 -19 15 -27 15 -13 0 -13 -3 -3 -15 8 -9 8 -15 2 -15 -6 0
-20 12 -31 28 -11 15 -21 22 -21 16z"/>
<path d="M1271 1265 c0 -12 -10 -47 -21 -79 -12 -32 -19 -60 -17 -62 9 -9 48
108 44 133 -2 18 -5 21 -6 8z"/>
<path d="M1140 1250 c0 -6 7 -13 15 -16 8 -3 21 -20 30 -37 16 -31 9 -46 -22
-47 -6 0 -20 -3 -30 -7 -15 -6 -16 -4 -5 9 11 14 8 16 -28 20 -42 4 -55 -6
-19 -15 12 -3 18 -10 14 -16 -8 -14 19 -14 63 -2 30 9 47 -1 20 -12 -8 -3 -6
-6 5 -6 11 -1 17 6 17 20 0 11 5 17 10 14 15 -9 12 11 -4 24 -8 7 -17 22 -20
34 -6 23 -46 55 -46 37z"/>
<path d="M1040 1234 c0 -10 33 -33 48 -34 18 0 15 17 -5 24 -10 3 -24 9 -30
12 -7 3 -13 2 -13 -2z"/>
<path d="M1130 1204 c-18 -10 -20 -14 -8 -14 9 0 22 -8 27 -17 6 -10 11 -13
11 -7 0 5 -6 16 -12 23 -11 11 -10 13 5 8 9 -4 17 -2 17 3 0 16 -14 17 -40 4z"/>
<path d="M1282 1138 c-1 -14 -4 -32 -5 -40 -2 -7 -2 -10 0 -5 3 4 9 5 13 2 5
-3 12 0 16 6 4 7 3 9 -4 5 -7 -4 -12 6 -15 26 -3 28 -4 29 -5 6z"/>
<path d="M1339 1134 c-19 -23 -22 -49 -3 -33 7 6 11 15 8 20 -3 5 2 9 10 9 8
0 18 5 21 10 10 17 -22 11 -36 -6z"/>
<path d="M1138 1113 c7 -3 16 -2 19 1 4 3 -2 6 -13 5 -11 0 -14 -3 -6 -6z"/>
<path d="M1210 1106 c0 -8 5 -18 10 -21 6 -3 10 1 10 9 0 8 -4 18 -10 21 -5 3
-10 -1 -10 -9z"/>
<path d="M1095 1100 c-3 -5 -1 -10 4 -10 6 0 11 5 11 10 0 6 -2 10 -4 10 -3 0
-8 -4 -11 -10z"/>
<path d="M1435 1098 c-16 -5 -36 -12 -44 -14 -8 -2 -11 -7 -8 -10 7 -8 87 17
87 28 0 4 -1 8 -2 7 -2 0 -16 -5 -33 -11z"/>
<path d="M1138 1093 c12 -2 32 -2 45 0 12 2 2 4 -23 4 -25 0 -35 -2 -22 -4z"/>
<path d="M1334 1074 c-18 -14 -18 -14 6 -3 31 14 36 19 24 19 -6 0 -19 -7 -30
-16z"/>
<path d="M1454 1072 c-9 -5 -8 -11 2 -20 12 -10 14 -10 14 2 0 8 8 17 18 19
14 4 14 5 -3 6 -11 0 -25 -3 -31 -7z"/>
<path d="M1249 1043 c-13 -16 -12 -17 4 -4 9 7 17 15 17 17 0 8 -8 3 -21 -13z"/>
<path d="M1339 1049 c-12 -7 -12 -9 -1 -9 20 0 73 -40 67 -50 -3 -5 -1 -11 5
-15 5 -3 10 -1 10 5 0 7 7 5 16 -4 8 -9 20 -16 27 -16 6 0 -4 16 -23 35 -18
19 -37 32 -41 29 -5 -2 -17 4 -27 14 -13 13 -24 17 -33 11z"/>
<path d="M1432 1023 c14 -14 23 -14 60 -5 l43 11 -47 -6 c-32 -3 -48 -2 -48 6
0 6 -5 11 -12 11 -8 0 -6 -6 4 -17z"/>
<path d="M1257 1013 c-13 -12 -7 -25 6 -14 10 8 19 7 33 -5 10 -8 13 -13 7 -9
-24 12 -13 -13 13 -30 14 -9 23 -19 20 -22 -3 -3 -11 -1 -18 4 -7 6 -30 14
-52 17 -34 6 -38 10 -33 31 2 14 0 22 -4 19 -5 -3 -9 -16 -9 -29 0 -20 6 -25
38 -30 20 -3 44 -10 52 -16 28 -17 75 -37 79 -33 3 2 -10 16 -27 31 -31 25
-45 53 -19 36 6 -4 26 -13 44 -19 30 -10 32 -10 23 7 -6 10 -20 21 -32 24 -13
4 -33 17 -45 28 -13 12 -23 15 -23 8 0 -8 -5 -9 -19 -1 -23 12 -26 12 -34 3z"/>
<path d="M548 988 c-16 -5 -28 -14 -28 -19 0 -6 5 -7 10 -4 6 4 18 1 27 -7 15
-11 16 -11 10 4 -9 24 9 33 22 11 12 -20 14 -13 5 11 -7 18 -9 18 -46 4z"/>
<path d="M1990 981 c-11 -21 -8 -25 35 -41 25 -9 27 -9 15 5 -7 8 -10 18 -7
22 8 7 -11 33 -24 33 -5 0 -13 -9 -19 -19z m31 -14 c-13 -13 -26 -3 -16 12 3
6 11 8 17 5 6 -4 6 -10 -1 -17z"/>
<path d="M1193 930 c0 -30 2 -43 4 -27 2 15 2 39 0 55 -2 15 -4 2 -4 -28z"/>
<path d="M593 889 c-38 -24 -38 -23 -18 -39 13 -11 14 -10 9 3 -4 11 2 20 20
28 14 7 26 16 26 21 0 11 0 11 -37 -13z"/>
<path d="M1226 851 c4 -44 42 -146 44 -118 0 5 -5 17 -11 28 -6 12 -17 48 -25
82 l-14 62 6 -54z"/>
<path d="M1948 889 c-25 -14 -23 -56 3 -69 16 -9 25 -8 40 6 24 21 24 36 1 57
-21 20 -21 20 -44 6z m45 -21 c7 -21 -4 -38 -23 -38 -23 0 -34 16 -26 35 7 18
43 20 49 3z"/>
<path d="M1201 834 c0 -11 3 -14 6 -6 3 7 2 16 -1 19 -3 4 -6 -2 -5 -13z"/>
<path d="M640 805 c-26 -32 13 -81 48 -59 34 22 22 74 -18 74 -10 0 -23 -7
-30 -15z m50 -11 c11 -12 10 -18 -3 -32 -16 -15 -18 -15 -34 0 -13 14 -14 20
-3 32 7 9 16 16 20 16 4 0 13 -7 20 -16z"/>
<path d="M1889 777 c11 -14 11 -18 -2 -23 -9 -3 -22 -2 -29 2 -7 4 -2 -5 11
-19 25 -28 53 -39 31 -12 -16 19 -3 40 16 24 8 -7 14 -7 14 -1 0 5 -12 18 -27
28 -24 15 -26 15 -14 1z"/>
<path d="M735 701 c-17 -33 -14 -37 16 -20 18 9 19 7 13 -15 -7 -31 0 -32 33
-6 14 11 21 20 15 20 -6 0 -14 -4 -17 -10 -12 -19 -26 -11 -15 9 15 28 13 33
-9 21 -28 -14 -36 -12 -21 5 7 9 10 18 7 21 -3 3 -13 -8 -22 -25z"/>
<path d="M1780 695 c-18 -22 -2 -37 31 -30 33 7 37 -1 12 -21 -10 -7 -13 -14
-7 -14 17 0 37 27 29 41 -4 6 -18 9 -31 6 -30 -5 -41 8 -17 22 10 6 13 11 7
11 -6 0 -17 -7 -24 -15z"/>
<path d="M846 618 c-17 -28 -17 -31 -2 -46 10 -11 16 -12 16 -4 0 7 -4 12 -10
12 -5 0 -10 5 -10 11 0 7 9 9 21 6 17 -4 19 -3 10 6 -17 17 -13 29 9 22 25 -8
26 1 2 14 -15 8 -22 4 -36 -21z"/>
<path d="M1633 603 c-7 -2 -13 -10 -13 -15 0 -6 3 -8 7 -4 4 4 15 -8 26 -26
10 -18 15 -24 11 -13 -4 11 -8 30 -8 43 -1 23 -3 24 -23 15z"/>
<path d="M942 565 c-15 -33 -15 -36 3 -29 10 4 15 0 16 -12 0 -14 2 -15 6 -4
4 8 12 21 20 28 10 11 11 17 2 28 -17 21 -34 17 -47 -11z m38 0 c0 -8 -4 -15
-9 -15 -13 0 -22 16 -14 24 11 11 23 6 23 -9z"/>
<path d="M1541 561 c-11 -7 -11 -15 -1 -45 6 -20 14 -36 16 -36 3 0 2 9 -1 20
-5 14 -2 20 9 20 9 0 16 4 16 9 0 5 -9 7 -20 4 -25 -7 -26 5 -2 23 19 15 5 19
-17 5z"/>
<path d="M1139 526 c-1 -3 -2 -9 -3 -13 -1 -5 -5 -14 -10 -21 -4 -7 -5 -19 -3
-26 7 -18 54 -17 54 0 0 8 -4 14 -9 14 -5 0 -8 10 -6 22 3 18 -20 41 -23 24z
m11 -46 c0 -5 -4 -10 -10 -10 -5 0 -10 5 -10 10 0 6 5 10 10 10 6 0 10 -4 10
-10z"/>
<path d="M1461 520 c0 -8 4 -24 9 -35 l9 -20 0 20 c0 11 -4 27 -9 35 -9 13
-10 13 -9 0z"/>
<path d="M1330 499 c-9 -16 -8 -25 6 -40 22 -24 36 -24 59 1 21 23 11 28 -11
5 -20 -19 -46 -8 -42 19 2 16 9 21 31 19 15 -1 25 2 22 8 -11 17 -54 10 -65
-12z"/>
</g>
</svg>
